#!OML:ASF F:\VICON\USERDATA\INSTALL\rory3\rory3.ASF
:FULLY-SPECIFIED
:DEGREES
73
root -0.08277349126926561 17.534590826568163 41.3039042594483 3.6029940654876578 2.166901770829651 -0.19869657872921875
lfemur 3.0601550973964198 -2.389730206768136 -25.38352385488392
ltibia 43.0891644274109
lfoot -8.140271238490108 -1.9326746288369208
ltoes -19.64608177902053
rfemur -40.77150759182878 -4.820226002810079 23.987464339469945
rtibia 94.17513918943948
rfoot 3.741437348915873 -5.317959343949132
rtoes 5.704255173091669
lowerback 15.675350484341154 -0.03320932908083696 -1.5203765520972394
upperback -0.986398721840779 -0.2656628959806211 1.1128517863974685
thorax -9.808696257047231 0.005171242384269914 2.8990126992113203
lowerneck -21.42527100619892 -2.5427587071329825 -1.9760277360559144
upperneck 14.574022513557354 -3.407690887933823 2.8660461564749933
head 8.015559440768541 -1.4091298991113095 0.8268497075959631
lclavicle 4.2522068885165036e-16 3.3462387891612495e-15
lhumerus -35.09962644899346 -15.645182086040235 97.47368437684517
lradius 113.17374697471875
lwrist 36.55088955767046
lhand -25.41457650013569 1.2862035557992555
lfingers 7.12502
lthumb 1.1111173440745918 31.291017343258712
rclavicle 4.2522068885165036e-16 3.3462387891612495e-15
rhumerus -56.47841285573844 6.7786862863172415 -99.74502518759593
rradius 106.18997904080062
rwrist -13.163043823872101
rhand -14.78033488727379 38.66235595744965
rfingers 7.12502
rthumb 11.377713954661715 9.493068600652018
74
root -0.06190820946474013 17.706235699281375 41.90975643080916 3.8742819009105083 1.4808359400703661 -0.4849410841796873
lfemur 6.248250669076869 -2.10135259545354 -25.09057168506162
ltibia 40.31680193143189
lfoot -2.9509343918323694 -4.110826973395428
ltoes -21.71726989595448
rfemur -42.01225623853479 -3.9022628471972216 24.709940687366117
rtibia 87.18098146685884
rfoot 3.249904246725208 -4.84023006398648
rtoes 3.5263803758383925
lowerback 15.258303806259164 -0.3355151828004319 -1.4069644599583506
upperback -1.2079591346657208 -0.6151694091860502 1.4747846015375343
thorax -9.728770199790901 -0.15325854873208222 3.299258075013522
lowerneck -21.307348862398474 -2.2643146930996334 -2.1246709845512224
upperneck 14.775512329112052 -2.9732115268911263 2.696898001250051
head 8.03901758205984 -1.2234828090809664 0.8387102587773554
lclavicle 3.0780474273806415e-16 3.2612889789727627e-15
lhumerus -34.41103746192617 -15.59240506060225 96.8336565729048
lradius 114.84320875992394
lwrist 37.131601780214666
lhand -25.376575638473263 1.0515808898276262
lfingers 7.12502
lthumb 1.147818491413961 31.04982977955268
rclavicle 3.0780474273806415e-16 3.2612889789727627e-15
rhumerus -58.259443477376564 6.669983012540832 -99.09544787969558
rradius 106.97859944892514
rwrist -13.303089632061758
rhand -14.57380479071675 38.73210276643102
rfingers 7.12502
rthumb 11.577116745798653 9.534509441612983
75
root -0.04936871226713502 17.857912772724912 41.567465539042495 4.080283997475427 0.5801681823905709 -0.8711676399306574
lfemur 8.246149569206436 -2.086900184625546 -25.039686865800512
ltibia 36.78920310100014
lfoot 2.2287855135122747 -6.408923556600004
ltoes -22.328943849811232
rfemur -43.11042017713201 -2.907581132532788 25.212700881295778
rtibia 78.19723469885933
rfoot 2.788081404890098 -4.350556249830105
rtoes 0.2655611424809754
lowerback 14.77054084663537 -0.5895884447633277 -1.34632605854377
upperback -1.4728313631929437 -0.9069744318139952 1.761199606234644
thorax -9.67655495259563 -0.28450689993080214 3.4627287511990565
lowerneck -21.171383376207213 -2.1047244031943904 -2.327839137750515
upperneck 14.914090525889378 -2.7028190469391435 2.5394022956534656
head 8.048152421752382 -1.1138272214116955 0.8492489304199741
lclavicle -7.261635772883536e-16 2.5115188951029748e-15
lhumerus -34.699626308498374 -15.949214534416884 96.11308101761014
lradius 115.79750841525824
lwrist 36.929592580917095
lhand -25.230300979866964 0.746532873376919
lfingers 7.12502
lthumb 1.2890938018689815 30.738263852673455
rclavicle -7.261635772883538e-16 2.5115188951029748e-15
rhumerus -60.23056309174409 6.09634594880302 -98.39448822031063
rradius 107.4922476239961
rwrist -13.275089022337024
rhand -14.57591997197217 38.74617128656695
rfingers 7.12502
rthumb 11.57516482184178 9.51492005519719
76
root -0.02968730349211887 18.004029324305442 41.82007433859013 4.316621610156347 -0.20760822698191406 -1.096227351466509
lfemur 10.474859343999272 -2.2159837228035633 -24.950618313524487
ltibia 34.74054007281737
lfoot 7.573890026103593 -8.150722828081141
ltoes -20.865590736719284
rfemur -43.03109512095662 -1.776514891204731 25.726712772048685
rtibia 69.47796668811502
rfoot 3.0154021788004384 -3.526906079478812
rtoes -2.987137840214149
lowerback 14.37971873746574 -0.745635045223551 -1.1942394837919277
upperback -1.7159277753522804 -1.0624029687918397 2.0197896448278887
thorax -9.63421111069293 -0.35714552373419084 3.6435363387113493
lowerneck -20.92021362565996 -1.9556565708462985 -2.5084801508461028
upperneck 15.07113595151684 -2.4458887134929004 2.4475632967710634
head 8.061071399833898 -1.0110119250975202 0.875509110177591
lclavicle -9.259778034405929e-16 2.3666499731176496e-15
lhumerus -34.73639461163103 -16.324859907211497 95.49593240855812
lradius 116.46390923492939
lwrist 36.37357692236817
lhand -24.984410114115907 0.4872652177917758
lfingers 7.12502
lthumb 1.526585458180734 30.475484514591415
rclavicle -9.25977803440593e-16 2.3666499731176496e-15
rhumerus -61.78014204744109 5.409107770325676 -97.49715423073455
rradius 108.11092976958481
rwrist -13.07655996758644
rhand -14.596279928175218 38.80149740414401
rfingers 7.12502
rthumb 11.555595098864453 9.54146705194809
